<?xml version="1.0" encoding="UTF-8"?>
<svg width="1024" height="1024" viewBox="0 0 1024 1024" xmlns="http://www.w3.org/2000/svg">
  <defs>
    <radialGradient id="g" cx="50%" cy="50%" r="60%">
      <stop offset="0%" stop-color="#5fd1ff"/>
      <stop offset="60%" stop-color="#2b9bdc"/>
      <stop offset="100%" stop-color="#0b5ea8"/>
    </radialGradient>
    <filter id="shadow" x="-50%" y="-50%" width="200%" height="200%">
      <feDropShadow dx="0" dy="12" stdDeviation="24" flood-color="#000" flood-opacity="0.5"/>
    </filter>
  </defs>
  <g filter="url(#shadow)">
    <circle cx="512" cy="512" r="420" fill="url(#g)"/>
  </g>
  <g fill="#58d68d" opacity="0.85">
    <path d="M180 520c80-40 140-10 200-50 20-14 50 0 90 30 60 46 120 40 160 20 60-30 110-20 160 0 40 16 70 8 100-10-20 140-160 260-340 260-190 0-340-140-370-250z"/>
    <path d="M430 260c30 10 40 40 30 70-10 30-40 40-70 30-30-10-40-40-30-70 10-30 40-40 70-30z"/>
    <path d="M760 380c24 8 32 32 24 52-8 24-32 32-52 24-24-8-32-32-24-52 8-24 32-32 52-24z"/>
  </g>
  <g opacity="0.25">
    <ellipse cx="420" cy="440" rx="320" ry="320" fill="#fff"/>
  </g>
  <circle cx="420" cy="420" r="360" fill="url(#g)" opacity="0.2"/>
</svg>

